<?xml version="1.0" standalone="no"?>
<!DOCTYPE svg PUBLIC "-//W3C//DTD SVG 20010904//EN"
 "http://www.w3.org/TR/2001/REC-SVG-20010904/DTD/svg10.dtd">
<svg version="1.0" xmlns="http://www.w3.org/2000/svg"
 width="600.000000pt" height="600.000000pt" viewBox="0 0 600.000000 600.000000"
 preserveAspectRatio="xMidYMid meet">

<g transform="translate(0.000000,600.000000) scale(0.100000,-0.100000)"
fill="#000000" stroke="none">
<path d="M4145 5630 c-106 -15 -187 -40 -290 -90 -170 -82 -313 -221 -398
-388 -57 -111 -85 -201 -99 -324 l-11 -98 -691 0 -691 0 -260 450 c-142 248
-263 450 -267 450 -17 0 -129 -61 -125 -68 93 -157 477 -825 477 -828 0 -2
-150 -4 -333 -4 -285 0 -336 -2 -355 -16 -12 -8 -22 -23 -22 -33 0 -10 337
-440 750 -957 l750 -939 0 -855 0 -855 -24 -52 c-70 -149 -202 -285 -349 -357
-99 -49 -183 -73 -372 -106 -186 -33 -225 -49 -225 -96 0 -56 -47 -54 1082
-54 1025 0 1038 0 1058 20 21 21 23 29 14 55 -11 28 -56 43 -245 79 -206 40
-267 58 -367 110 -138 73 -247 186 -323 334 l-34 67 0 855 0 855 478 598 c263
328 480 597 483 597 2 0 28 -13 57 -30 133 -75 276 -110 446 -110 356 0 658
195 811 524 64 135 75 190 75 371 0 137 -3 171 -23 238 -78 269 -275 494 -522
593 -140 57 -323 83 -455 64z m75 -95 c0 -45 0 -45 35 -45 35 0 35 0 35 45 l0
45 48 -6 c82 -10 196 -41 266 -73 l68 -31 -26 -34 -26 -35 29 -20 29 -21 29
36 29 36 83 -78 c46 -43 101 -104 122 -136 l39 -57 -40 -27 c-40 -26 -41 -33
-12 -66 14 -17 16 -16 42 2 16 11 33 20 38 20 24 0 70 -159 80 -275 l8 -85
-38 0 c-37 0 -38 -1 -38 -35 0 -34 2 -35 36 -35 l36 0 -7 -52 c-13 -95 -80
-278 -102 -278 -3 0 -14 7 -24 16 -15 14 -19 13 -38 -15 l-21 -29 25 -20 25
-20 -38 -49 c-48 -60 -125 -131 -181 -169 -48 -31 -43 -33 -84 29 -12 18 -13
18 -40 -3 l-27 -22 20 -28 c11 -15 20 -31 20 -35 0 -8 -90 -48 -96 -43 -5 6
-214 681 -214 693 0 27 81 86 319 231 l260 158 -24 41 c-13 22 -28 39 -33 38
-6 -1 -132 -77 -281 -168 -149 -91 -272 -165 -274 -165 -2 0 -91 67 -198 150
l-194 149 -28 -32 c-53 -62 -59 -53 111 -182 l156 -120 -354 -3 c-194 -1 -355
0 -358 3 -11 10 18 183 43 263 l26 82 27 -14 c25 -13 28 -12 44 12 17 26 17
27 -9 48 -26 20 -26 20 -7 50 40 63 117 155 166 195 l50 43 20 -27 20 -27 30
21 29 21 -21 23 c-24 26 -21 30 55 68 82 41 209 75 323 86 8 1 12 -14 12 -44z
m-2238 -1127 l146 -253 -225 -3 c-186 -2 -224 -5 -220 -16 8 -20 914 -1156
944 -1183 24 -23 85 -31 110 -15 22 14 961 1197 956 1205 -2 4 -316 7 -698 7
l-693 0 -123 213 c-67 116 -133 229 -146 250 -14 22 -23 41 -20 43 2 2 495 3
1095 2 l1091 -3 -729 -914 c-486 -607 -733 -925 -740 -950 -8 -24 -10 -310 -8
-886 l3 -850 39 -75 c104 -203 263 -344 476 -424 25 -9 106 -30 180 -45 l135
-29 -865 0 c-476 0 -860 1 -855 3 6 2 64 15 130 29 67 13 158 38 203 56 197
76 373 243 458 437 l24 54 0 873 0 873 -22 29 c-44 57 -539 678 -990 1242
-252 315 -458 574 -458 577 0 3 148 5 328 5 l328 0 146 -252z m2306 200 c5 -7
54 -155 107 -328 54 -173 101 -322 106 -331 7 -14 0 -19 -39 -29 -26 -6 -77
-15 -114 -19 l-68 -7 0 38 c0 37 -1 38 -35 38 -33 0 -35 -2 -35 -35 0 -34 -1
-35 -37 -35 -65 0 -202 39 -289 81 -46 23 -86 44 -88 48 -2 3 54 78 125 166
71 88 177 220 236 293 59 72 110 132 114 132 3 0 11 -6 17 -12z"/>
</g>
</svg>
